<svg width="32" height="32" viewBox="0 0 32 32" fill="none" xmlns="http://www.w3.org/2000/svg">
<path d="M16.8667 19.4395C16.8667 19.4395 19.44 20.4395 19.44 21.9995L17.9467 21.0395L16.8667 19.4395Z" fill="#0049B9"/>
<path d="M24.3188 6.33398L16.0122 10.6673L6.14551 10.671" stroke="#0049B9" stroke-width="1.33" stroke-linecap="round" stroke-linejoin="round"/>
<path d="M6.5 13C7.88071 13 9 11.8807 9 10.5C9 9.11929 7.88071 8 6.5 8C5.11929 8 4 9.11929 4 10.5C4 11.8807 5.11929 13 6.5 13Z" fill="#59B9FF" stroke="#0049B9" stroke-width="1.33" stroke-linecap="round" stroke-linejoin="round"/>
<path d="M16.5 13C17.8807 13 19 11.8807 19 10.5C19 9.11929 17.8807 8 16.5 8C15.1193 8 14 9.11929 14 10.5C14 11.8807 15.1193 13 16.5 13Z" fill="#59B9FF" stroke="#0049B9" stroke-width="1.33" stroke-linecap="round" stroke-linejoin="round"/>
<path d="M25.3329 9.33333C26.8057 9.33333 27.9996 8.13943 27.9996 6.66667C27.9996 5.19391 26.8057 4 25.3329 4C23.8602 4 22.6663 5.19391 22.6663 6.66667C22.6663 8.13943 23.8602 9.33333 25.3329 9.33333Z" fill="white" stroke="#0049B9" stroke-width="1.33" stroke-linecap="round" stroke-linejoin="round"/>
<path d="M7.28125 19.3389C7.94468 19.3389 8.57068 19.4513 9.14648 19.6641C9.73475 19.8768 10.2104 20.2525 10.5859 20.7656C10.9615 21.2789 11.1494 21.9552 11.1494 22.7939V29.5156H9.02148V28.709C8.42243 29.1246 7.82153 29.3608 7.80762 29.3662L7.83984 29.3174C7.38831 29.5903 6.83511 29.7285 6.16699 29.7285C5.55368 29.7285 5.01568 29.6157 4.54004 29.3779C4.06435 29.1401 3.68848 28.802 3.41309 28.3389C3.13783 27.8883 3 27.3373 3 26.6865C3.00009 25.6603 3.3259 24.9094 3.98926 24.4463C4.65268 23.9832 5.49121 23.7206 6.51758 23.6455C7.04334 23.608 7.85722 23.5579 8.94629 23.5078V22.7061C8.94626 22.2054 8.79552 21.8174 8.49512 21.542C8.20727 21.2668 7.78195 21.129 7.23145 21.1289C6.75587 21.1289 6.35491 21.2414 6.04199 21.4541C5.72904 21.6669 5.54075 21.968 5.45312 22.3311H3.3125C3.36257 21.7553 3.55073 21.2416 3.88867 20.791C4.22663 20.3404 4.67716 19.9769 5.25293 19.7266C5.82876 19.4637 6.50513 19.3389 7.28125 19.3389ZM24.9941 19.3389C25.7451 19.3389 26.3839 19.4643 26.9346 19.7021C27.4851 19.9525 27.9235 20.2907 28.2363 20.7412C28.5491 21.1918 28.7363 21.7178 28.7988 22.3311H26.6963C26.6212 21.9431 26.4459 21.6425 26.1582 21.4297H26.1709C25.883 21.2044 25.5197 21.0918 25.0566 21.0918C24.7437 21.0918 24.4553 21.1411 24.1924 21.2412C23.9422 21.3413 23.7422 21.4792 23.6045 21.6543C23.4668 21.8295 23.3916 22.0432 23.3916 22.2686C23.3917 22.5437 23.4914 22.7694 23.7041 22.957C23.9169 23.1447 24.255 23.3073 24.7305 23.4199L26.333 23.7705C27.2216 23.9833 27.8978 24.3083 28.3359 24.7588C28.7741 25.2094 29 25.7982 29 26.5117C29 27.1376 28.837 27.7013 28.499 28.1895C28.1736 28.6776 27.6973 29.0526 27.084 29.3154C26.4706 29.5783 25.7697 29.7168 24.9561 29.7168C23.7669 29.7168 22.8279 29.4533 22.127 28.915C21.4261 28.3768 21.0256 27.6257 20.9004 26.6494H23.166C23.2286 27.075 23.4164 27.4005 23.7168 27.6133C24.0172 27.8261 24.4304 27.9383 24.9561 27.9258C25.4942 27.9258 25.9197 27.8259 26.2451 27.6133C26.558 27.4005 26.7209 27.1001 26.7334 26.7246C26.7334 26.4367 26.6083 26.1983 26.3955 25.998C26.1702 25.8104 25.8319 25.6606 25.3564 25.5605L23.8418 25.21C22.9657 25.0222 22.3022 24.6836 21.8516 24.208C21.4012 23.7325 21.1759 23.1319 21.1758 22.4062C21.1758 21.7929 21.3385 21.2542 21.6514 20.791C21.9643 20.3278 22.4154 19.9652 22.9912 19.7148C23.567 19.4645 24.2431 19.3389 24.9941 19.3389ZM20.4502 29.5166H18.2715V28.5332C17.7847 28.9162 17.2413 29.177 16.9785 29.2939C16.5381 29.565 16.0221 29.704 15.4307 29.7041C14.6796 29.7041 14.016 29.4911 13.4277 29.0781H13.415C12.8267 28.665 12.3634 28.0767 12.0254 27.2881C11.6875 26.4996 11.5245 25.5734 11.5244 24.4971C11.5244 23.4205 11.7001 22.4812 12.0381 21.7051C12.376 20.9292 12.8514 20.341 13.4395 19.9404C14.0277 19.5399 14.704 19.3389 15.4424 19.3389C16.1809 19.3389 16.7568 19.5148 17.1699 19.8652C17.583 20.2157 17.9086 20.629 18.1465 21.1172H18.2344V16.1094H20.4502V29.5166ZM8.95898 25.085C8.65863 25.085 8.32036 25.1224 7.91992 25.1475C7.51937 25.1725 7.16858 25.1976 6.86816 25.2227C6.3299 25.2727 5.90395 25.4223 5.60352 25.6602C5.30308 25.898 5.14062 26.2367 5.14062 26.6748C5.14071 27.1127 5.29127 27.4126 5.5791 27.6504L5.59082 27.6387C5.87874 27.864 6.26766 27.9766 6.75586 27.9766C7.19381 27.9765 7.58187 27.8889 7.90723 27.7012C8.24517 27.5134 8.50834 27.2631 8.68359 26.9502C8.87132 26.6373 8.95894 26.2866 8.95898 25.9111V25.085ZM16.0312 21.2295C15.5556 21.2295 15.1426 21.3673 14.8047 21.6426C14.4668 21.9179 14.2163 22.2933 14.041 22.7812C13.8658 23.2694 13.7783 23.8206 13.7783 24.459C13.7783 25.0973 13.8658 25.673 14.041 26.1611L14.0537 26.1865C14.229 26.6747 14.4794 27.0625 14.8174 27.3379C15.1553 27.6132 15.5556 27.751 16.0312 27.751C16.5069 27.751 16.9072 27.6133 17.2451 27.3379C17.5831 27.0625 17.8337 26.6872 18.0215 26.1865C18.1967 25.6983 18.2842 25.1224 18.2842 24.459C18.2842 23.4701 18.0843 22.6938 17.6963 22.1055C17.3082 21.5297 16.7572 21.242 16.0312 21.2295Z" fill="#0049B9"/>
<circle cx="25.5" cy="5.5" r="4.5" fill="#FF6262"/>
<circle cx="25.5" cy="5.5" r="0.5" fill="white"/>
</svg>
