<svg width="33" height="33" viewBox="0 0 33 33" fill="none" xmlns="http://www.w3.org/2000/svg">
    <g clip-path="url(#7kbvkewg5a)" stroke="#3C3C3C" stroke-width="1.375" stroke-linecap="round" stroke-linejoin="round">
        <path d="M30.938 10.77v16.5a3.666 3.666 0 0 1-3.667 3.668H12.604a3.666 3.666 0 0 1-3.666-3.667V6.646a3.666 3.666 0 0 1 3.666-3.667h10.542l7.791 7.792z" fill="#fff"/>
        <path d="M23.98 8.849 12.341 6.284a2.75 2.75 0 0 0-3.278 2.093L6.006 22.253A2.75 2.75 0 0 0 8.1 25.53l11.637 2.565a2.75 2.75 0 0 0 3.277-2.093l3.059-13.876a2.75 2.75 0 0 0-2.094-3.277z" fill="#D8E5F9"/>
        <path d="m13.078 12.545 7.608 1.677M12.188 16.573l7.608 1.678M11.297 20.602l4.478.985"/>
        <path d="m7.104 3.094 4.813 7.104-7.792-2.636 2.98-4.468z" fill="#fff"/>
        <path d="M5.04 8.25a3.208 3.208 0 1 0 0-6.417 3.208 3.208 0 0 0 0 6.417z" fill="#fff"/>
    </g>
    <defs>
        <clipPath id="7kbvkewg5a">
            <path fill="#fff" d="M0 0h33v33H0z"/>
        </clipPath>
    </defs>
</svg>
