<svg width="32" height="32" viewBox="0 0 32 32" fill="none" xmlns="http://www.w3.org/2000/svg">
    <g clip-path="url(#zb8ao4092a)" stroke="#0049B9" stroke-width="1.333" stroke-linecap="round" stroke-linejoin="round">
        <path d="M30.001 10.444v16A3.555 3.555 0 0 1 26.446 30H12.223a3.555 3.555 0 0 1-3.555-3.555v-20a3.555 3.555 0 0 1 3.556-3.556h10.222L30 10.444z" fill="#fff"/>
        <path d="M23.252 8.58 11.967 6.095a2.667 2.667 0 0 0-3.178 2.03L5.824 21.578a2.667 2.667 0 0 0 2.03 3.179l11.285 2.487a2.667 2.667 0 0 0 3.178-2.03l2.965-13.455a2.667 2.667 0 0 0-2.03-3.178z" fill="#59B9FF"/>
        <path d="m12.68 12.165 7.378 1.626M11.82 16.071l7.378 1.627M10.953 19.978l4.342.955"/>
        <path d="m6.889 3 4.667 6.889L4 7.333 6.889 3z" fill="#fff"/>
        <path d="M4.888 8a3.111 3.111 0 1 0 0-6.222 3.111 3.111 0 0 0 0 6.222z" fill="#fff"/>
    </g>
    <defs>
        <clipPath id="zb8ao4092a">
            <path fill="#fff" d="M0 0h32v32H0z"/>
        </clipPath>
    </defs>
</svg>
