<svg width="32" height="32" viewBox="0 0 32 32" fill="none" xmlns="http://www.w3.org/2000/svg">
    <g clip-path="url(#5vf6lili1a)">
        <path d="M7.779 21.111H6c-.86 0-1.556.697-1.556 1.556v5.777c0 .86.697 1.556 1.556 1.556h1.778c.859 0 1.555-.697 1.555-1.556v-5.777c0-.86-.696-1.556-1.555-1.556z" fill="#fff"/>
        <path d="M7.777 21.778c.49 0 .89.4.89.889v5.777c0 .49-.4.89-.89.89H6a.892.892 0 0 1-.89-.89v-5.777c0-.49.4-.89.89-.89h1.777zm0-1.334H6a2.223 2.223 0 0 0-2.223 2.223v5.777c0 1.227.996 2.223 2.223 2.223h1.777A2.223 2.223 0 0 0 10 28.444v-5.777a2.223 2.223 0 0 0-2.223-2.223z" fill="#0049B9"/>
        <path d="M17.11 12.667h-1.777c-.86 0-1.556.696-1.556 1.555v14.223c0 .859.697 1.555 1.556 1.555h1.778c.859 0 1.555-.696 1.555-1.555V14.222c0-.859-.696-1.555-1.555-1.555z" fill="#fff"/>
        <path d="M17.11 13.333c.488 0 .888.4.888.89v14.221c0 .49-.4.89-.889.89h-1.777a.892.892 0 0 1-.89-.89V14.222c0-.489.4-.889.89-.889h1.777zm0-1.333h-1.778a2.223 2.223 0 0 0-2.223 2.222v14.222c0 1.227.996 2.223 2.223 2.223h1.777a2.223 2.223 0 0 0 2.223-2.223V14.222A2.223 2.223 0 0 0 17.109 12zM26 18.222c.489 0 .889.4.889.89v9.333c0 .488-.4.888-.889.888h-1.778a.892.892 0 0 1-.889-.888V19.11c0-.489.4-.889.89-.889H26zm0-1.333h-1.778A2.223 2.223 0 0 0 22 19.11v9.334c0 1.226.996 2.222 2.222 2.222H26a2.223 2.223 0 0 0 2.222-2.223v-9.333A2.223 2.223 0 0 0 26 16.89z" fill="#0049B9"/>
        <path d="M24.89 11.778a2.667 2.667 0 1 0 0-5.334 2.667 2.667 0 0 0 0 5.334z" fill="#fff"/>
        <path d="M24.888 7.111c1.107 0 2 .894 2 2 0 1.107-.893 2-2 2s-2-.893-2-2 .893-2 2-2zm0-1.333a3.335 3.335 0 0 0 0 6.667 3.335 3.335 0 0 0 0-6.667z" fill="#0049B9"/>
        <path d="M15.999 8.222a2.667 2.667 0 1 0 0-5.333 2.667 2.667 0 0 0 0 5.333z" fill="#59B9FF"/>
        <path d="M16.001 3.555c1.107 0 2 .894 2 2 0 1.107-.893 2-2 2-1.106 0-2-.893-2-2 0-1.106.894-2 2-2zm0-1.333a3.335 3.335 0 0 0 0 6.667 3.335 3.335 0 0 0 0-6.667z" fill="#0049B9"/>
        <path d="M7.112 15.333a2.667 2.667 0 1 0 0-5.333 2.667 2.667 0 0 0 0 5.333z" fill="#fff"/>
        <path d="M7.11 10.667c1.107 0 2 .893 2 2 0 1.106-.893 2-2 2-1.106 0-2-.894-2-2 0-1.107.894-2 2-2zm0-1.334a3.335 3.335 0 0 0 0 6.667 3.335 3.335 0 0 0 0-6.667z" fill="#0049B9"/>
        <path d="m18.746 6.698 3.493 1.311M9.426 10.925l4.253-3.627" stroke="#0049B9" stroke-width="1.333" stroke-linecap="round" stroke-linejoin="round"/>
        <path d="M5.11 24h3.555v4.444c0 .49-.4.89-.889.89H5.998a.891.891 0 0 1-.889-.89V24zM14.445 19.556h3.556v8.889c0 .488-.4.888-.889.888h-1.778a.891.891 0 0 1-.889-.888v-8.89zM23.332 28.445c0 .488.4.888.889.888h1.778c.489 0 .889-.4.889-.888v-6.667h-3.556v6.667z" fill="#59B9FF"/>
    </g>
    <defs>
        <clipPath id="5vf6lili1a">
            <path fill="#fff" d="M0 0h32v32H0z"/>
        </clipPath>
    </defs>
</svg>
