<svg width="32" height="32" viewBox="0 0 32 32" fill="none" xmlns="http://www.w3.org/2000/svg">
    <g clip-path="url(#1c4f11tvpa)">
        <g clip-path="url(#alsslr2q2b)">
            <path d="M26.51 3.898H8.155a3.489 3.489 0 0 0-3.489 3.489v11.79a3.489 3.489 0 0 0 3.489 3.49H26.51a3.489 3.489 0 0 0 3.488-3.49V7.388a3.489 3.489 0 0 0-3.488-3.489z" fill="#fff" stroke="#0049B9" stroke-width="1.333" stroke-linecap="round" stroke-linejoin="round"/>
            <path d="M23.844 9.676H5.49A3.489 3.489 0 0 0 2 13.165v11.79a3.489 3.489 0 0 0 3.489 3.49h18.355a3.489 3.489 0 0 0 3.49-3.49v-11.79a3.489 3.489 0 0 0-3.49-3.49z" fill="#59B9FF" stroke="#0049B9" stroke-width="1.333" stroke-linecap="round" stroke-linejoin="round"/>
            <path d="M27.333 14.476H2v3.044h25.333v-3.044z" fill="#0049B9"/>
            <path d="M21.832 24.893a2 2 0 1 0 0-4 2 2 0 0 0 0 4z" fill="#fff" stroke="#0049B9" stroke-width="1.333" stroke-linecap="round" stroke-linejoin="round"/>
            <path d="M18.764 21.164a1.997 1.997 0 0 0-3.004 1.729 1.997 1.997 0 0 0 3.066 1.689" fill="#fff"/>
            <path d="M18.764 21.164a1.997 1.997 0 0 0-3.004 1.729 1.997 1.997 0 0 0 3.066 1.689" stroke="#0049B9" stroke-width="1.333" stroke-linecap="round" stroke-linejoin="round"/>
        </g>
    </g>
    <defs>
        <clipPath id="1c4f11tvpa">
            <path fill="#fff" d="M0 0h32v32H0z"/>
        </clipPath>
        <clipPath id="alsslr2q2b">
            <path fill="#fff" d="M0 0h32v32H0z"/>
        </clipPath>
    </defs>
</svg>
