<svg width="32" height="32" viewBox="0 0 32 32" fill="none" xmlns="http://www.w3.org/2000/svg">
    <g clip-path="url(#cz5dntpaja)" stroke="#0049B9" stroke-width="1.333" stroke-linecap="round" stroke-linejoin="round">
        <path d="M18.822 19.471a2.154 2.154 0 0 1-1.72-3.244c.168-.285.288-.596.364-.93.262-1.155-.076-2.408-.907-3.355L13.173 8.09c-1.36-1.547-3.61-1.796-5.014-.56l-.417.364c-1.338 1.178-1.445 3.307-.25 4.85.73.937.56 2.293-.377 3.021a2.155 2.155 0 0 1-3.022-.377c-2.591-3.338-2.24-8.05.804-10.725l.418-.369c3.191-2.804 8.164-2.378 11.093.947l3.387 3.853c1.742 1.982 2.44 4.654 1.875 7.156a7.635 7.635 0 0 1-.853 2.16 2.155 2.155 0 0 1-1.995 1.058v.004z" fill="#fff"/>
        <path d="M21.333 29.538c-2.13-.138-4.254-1.125-5.823-2.907l-3.106-3.533c-2.231-2.538-2.796-6.04-1.44-8.924a2.155 2.155 0 0 1 3.897 1.835c-.617 1.307-.302 3.009.778 4.24l3.111 3.533c1.436 1.631 3.747 1.956 5.151.716l.418-.364c1.307-1.152 1.383-3.316.17-4.93a2.155 2.155 0 1 1 3.444-2.59c2.56 3.4 2.222 8.124-.77 10.755l-.417.364c-1.524 1.338-3.467 1.93-5.413 1.8v.005z" fill="#59B9FF"/>
    </g>
    <defs>
        <clipPath id="cz5dntpaja">
            <path fill="#fff" d="M0 0h32v32H0z"/>
        </clipPath>
    </defs>
</svg>
